<svg width="124" height="200" viewBox="0 0 124 200" fill="none" xmlns="http://www.w3.org/2000/svg">
<path d="M41.6301 149.231H55.2789V166.178H68.2008V64.1509H82.261V180.197H41.6321V149.231H41.6301Z" fill="#4A252C"/>
<path d="M82.2885 20.0284V50.9076H68.4262V34.0808H55.4436V136.045H41.6086V20.0284H82.2905H82.2885Z" fill="#4A252C"/>
<path d="M0.0429688 100.036H13.7388V180.085H0.0429688V100.036Z" fill="#CC6137"/>
<path d="M110.025 20.0245H123.548V100.075H110.025V20.0245Z" fill="#CC6137"/>
<path d="M28.3321 19.9912V33.7282H14.1798V75.5974H0V19.9912H28.3321Z" fill="#4A252C"/>
<path d="M123.682 180.217H95.4456V166.511H109.666V124.663H123.682V180.217Z" fill="#4A252C"/>
<path d="M13.7742 81.0032V94.552H0.0666504V81.0032H13.7742Z" fill="#ECA308"/>
<path d="M10.4139 185.14V189.096H8.62305V186.941H6.94586V200H5.15894V185.14H10.4139Z" fill="#ECA308"/>
<path d="M3.66005 185.14V186.9H1.83199V192.263H0V185.14H3.66005Z" fill="#ECA308"/>
<path d="M1.77906 192.954V194.69H0.0078125V192.954H1.77906Z" fill="#ECA308"/>
<path d="M22.9989 185.14V189.096H21.208V186.941H19.5308V200H17.7439V185.14H22.9989Z" fill="#ECA308"/>
<path d="M16.245 185.14V186.9H14.4169V192.263H12.585V185.14H16.245Z" fill="#ECA308"/>
<path d="M14.364 192.954V194.69H12.5928V192.954H14.364Z" fill="#ECA308"/>
<path d="M35.5836 185.14V189.096H33.7927V186.941H32.1155V200H30.3286V185.14H35.5836Z" fill="#ECA308"/>
<path d="M28.8297 185.14V186.9H27.0017V192.263H25.1697V185.14H28.8297Z" fill="#ECA308"/>
<path d="M26.9507 192.954V194.69H25.1794V192.954H26.9507Z" fill="#ECA308"/>
<path d="M48.1685 185.14V189.096H46.3777V186.941H44.7005V200H42.9136V185.14H48.1685Z" fill="#ECA308"/>
<path d="M41.4147 185.14V186.9H39.5866V192.263H37.7546V185.14H41.4147Z" fill="#ECA308"/>
<path d="M39.5356 192.954V194.69H37.7644V192.954H39.5356Z" fill="#ECA308"/>
<path d="M60.7552 185.14V189.096H58.9644V186.941H57.2872V200H55.5002V185.14H60.7552Z" fill="#ECA308"/>
<path d="M54.0014 185.14V186.9H52.1733V192.263H50.3413V185.14H54.0014Z" fill="#ECA308"/>
<path d="M52.1204 192.954V194.69H50.3491V192.954H52.1204Z" fill="#ECA308"/>
<path d="M73.3402 185.14V189.096H71.5493V186.941H69.8721V200H68.0852V185.14H73.3402Z" fill="#ECA308"/>
<path d="M66.5863 185.14V186.9H64.7583V192.263H62.9263V185.14H66.5863Z" fill="#ECA308"/>
<path d="M64.7053 192.954V194.69H62.9341V192.954H64.7053Z" fill="#ECA308"/>
<path d="M85.9251 185.14V189.096H84.1343V186.941H82.4571V200H80.6702V185.14H85.9251Z" fill="#ECA308"/>
<path d="M79.1713 185.14V186.9H77.3432V192.263H75.5112V185.14H79.1713Z" fill="#ECA308"/>
<path d="M77.2922 192.954V194.69H75.521V192.954H77.2922Z" fill="#ECA308"/>
<path d="M98.5098 185.14V189.096H96.719V186.941H95.0418V200H93.2549V185.14H98.5098Z" fill="#ECA308"/>
<path d="M91.758 185.14V186.9H89.9299V192.263H88.0979V185.14H91.758Z" fill="#ECA308"/>
<path d="M89.877 192.954V194.69H88.1057V192.954H89.877Z" fill="#ECA308"/>
<path d="M111.097 185.14V189.096H109.306V186.941H107.629V200H105.842V185.14H111.097Z" fill="#ECA308"/>
<path d="M104.343 185.14V186.9H102.515V192.263H100.683V185.14H104.343Z" fill="#ECA308"/>
<path d="M102.462 192.954V194.69H100.691V192.954H102.462Z" fill="#ECA308"/>
<path d="M123.681 185.14V189.096H121.891V186.941H120.213V200H118.427V185.14H123.681Z" fill="#ECA308"/>
<path d="M116.928 185.14V186.9H115.1V192.263H113.268V185.14H116.928Z" fill="#ECA308"/>
<path d="M115.047 192.954V194.69H113.275V192.954H115.047Z" fill="#ECA308"/>
<path d="M113.268 14.8597C113.268 13.5371 113.268 12.242 113.268 10.9037H115.058C115.058 11.6267 115.058 12.3301 115.058 13.059H116.736C116.736 8.70536 116.736 4.36934 116.736 0H118.523C118.523 4.95714 118.523 9.89272 118.523 14.8597C116.777 14.8597 115.051 14.8597 113.268 14.8597Z" fill="#ECA308"/>
<path d="M120.021 14.8596C120.021 14.2699 120.021 13.7095 120.021 13.1001C120.621 13.1001 121.199 13.1001 121.85 13.1001C121.85 11.2917 121.85 9.53219 121.85 7.73743H123.682C123.682 10.12 123.682 12.481 123.682 14.8596H120.021Z" fill="#ECA308"/>
<path d="M121.902 7.04579V5.30981C122.502 5.30981 123.066 5.30981 123.674 5.30981C123.674 5.89566 123.674 6.46191 123.674 7.04579H121.902Z" fill="#ECA308"/>
<path d="M100.683 14.8597C100.683 13.5371 100.683 12.242 100.683 10.9037H102.474C102.474 11.6267 102.474 12.3301 102.474 13.059H104.151C104.151 8.70536 104.151 4.36934 104.151 0H105.938C105.938 4.95714 105.938 9.89272 105.938 14.8597C104.192 14.8597 102.466 14.8597 100.683 14.8597Z" fill="#ECA308"/>
<path d="M107.437 14.8596C107.437 14.2699 107.437 13.7095 107.437 13.1001H109.265C109.265 11.2917 109.265 9.53219 109.265 7.73743H111.097C111.097 10.12 111.097 12.481 111.097 14.8596C109.862 14.8596 108.665 14.8596 107.437 14.8596Z" fill="#ECA308"/>
<path d="M109.318 7.04579V5.30981C109.917 5.30981 110.481 5.30981 111.089 5.30981C111.089 5.89566 111.089 6.46191 111.089 7.04579H109.318Z" fill="#ECA308"/>
<path d="M88.0979 14.8597C88.0979 13.5371 88.0979 12.242 88.0979 10.9037C88.6837 10.9037 89.2559 10.9037 89.8887 10.9037C89.8887 11.6267 89.8887 12.3301 89.8887 13.059H91.5659C91.5659 8.70536 91.5659 4.36934 91.5659 0H93.3529C93.3529 4.95714 93.3529 9.89272 93.3529 14.8597C91.6071 14.8597 89.8809 14.8597 88.0979 14.8597Z" fill="#ECA308"/>
<path d="M94.8518 14.8596C94.8518 14.2699 94.8518 13.7095 94.8518 13.1001H96.6799C96.6799 11.2917 96.6799 9.53219 96.6799 7.73743H98.5119C98.5119 10.12 98.5119 12.481 98.5119 14.8596C97.2775 14.8596 96.0803 14.8596 94.8518 14.8596Z" fill="#ECA308"/>
<path d="M96.7307 7.04579V5.30981H98.502C98.502 5.89566 98.502 6.46191 98.502 7.04579H96.7307Z" fill="#ECA308"/>
<path d="M75.5132 14.8597C75.5132 13.5371 75.5132 12.242 75.5132 10.9037C76.099 10.9037 76.6712 10.9037 77.304 10.9037C77.304 11.6267 77.304 12.3301 77.304 13.059H78.9812C78.9812 8.70536 78.9812 4.36934 78.9812 0H80.7681C80.7681 4.95714 80.7681 9.89272 80.7681 14.8597C79.0224 14.8597 77.2962 14.8597 75.5132 14.8597Z" fill="#ECA308"/>
<path d="M82.2651 14.8596C82.2651 14.2699 82.2651 13.7095 82.2651 13.1001C82.8647 13.1001 83.4427 13.1001 84.0932 13.1001C84.0932 11.2917 84.0932 9.53219 84.0932 7.73743C84.7398 7.73743 85.3139 7.73743 85.9252 7.73743C85.9252 10.12 85.9252 12.481 85.9252 14.8596C84.6908 14.8596 83.4936 14.8596 82.2651 14.8596Z" fill="#ECA308"/>
<path d="M84.146 7.04579C84.146 6.44231 84.146 5.89566 84.146 5.30981H85.9172C85.9172 5.89566 85.9172 6.46191 85.9172 7.04579H84.146Z" fill="#ECA308"/>
<path d="M62.9263 14.8597C62.9263 13.5371 62.9263 12.242 62.9263 10.9037C63.5121 10.9037 64.0842 10.9037 64.7171 10.9037C64.7171 11.6267 64.7171 12.3301 64.7171 13.059H66.3943C66.3943 8.70536 66.3943 4.36934 66.3943 0C67.0115 0 67.5778 0 68.1812 0C68.1812 4.95714 68.1812 9.89272 68.1812 14.8597H62.9263Z" fill="#ECA308"/>
<path d="M69.6802 14.8596C69.6802 14.2699 69.6802 13.7095 69.6802 13.1001C70.2797 13.1001 70.8577 13.1001 71.5082 13.1001C71.5082 11.2917 71.5082 9.53219 71.5082 7.73743C72.1548 7.73743 72.7289 7.73743 73.3402 7.73743C73.3402 10.12 73.3402 12.481 73.3402 14.8596C72.1058 14.8596 70.9087 14.8596 69.6802 14.8596Z" fill="#ECA308"/>
<path d="M71.561 7.04579C71.561 6.44231 71.561 5.89566 71.561 5.30981C72.1606 5.30981 72.7249 5.30981 73.3323 5.30981V7.04579H71.561Z" fill="#ECA308"/>
<path d="M50.3413 14.8597C50.3413 13.5371 50.3413 12.242 50.3413 10.9037C50.9272 10.9037 51.4993 10.9037 52.1322 10.9037C52.1322 11.6267 52.1322 12.3301 52.1322 13.059C52.7141 13.059 53.2353 13.059 53.8093 13.059C53.8093 8.70536 53.8093 4.36934 53.8093 0H55.5963C55.5963 4.95714 55.5963 9.89272 55.5963 14.8597C53.8505 14.8597 52.1243 14.8597 50.3413 14.8597Z" fill="#ECA308"/>
<path d="M57.0952 14.8596C57.0952 14.2699 57.0952 13.7095 57.0952 13.1001H58.9233C58.9233 11.2917 58.9233 9.53219 58.9233 7.73743H60.7553C60.7553 10.12 60.7553 12.481 60.7553 14.8596H57.0952Z" fill="#ECA308"/>
<path d="M58.9761 7.04579V5.30981C59.5756 5.30981 60.1399 5.30981 60.7473 5.30981C60.7473 5.89566 60.7473 6.46191 60.7473 7.04579H58.9761Z" fill="#ECA308"/>
<path d="M37.7566 14.8597C37.7566 13.5371 37.7566 12.242 37.7566 10.9037C38.3424 10.9037 38.9146 10.9037 39.5474 10.9037C39.5474 11.6267 39.5474 12.3301 39.5474 13.059C40.1294 13.059 40.6505 13.059 41.2246 13.059C41.2246 8.70536 41.2246 4.36934 41.2246 0H43.0116C43.0116 4.95714 43.0116 9.89272 43.0116 14.8597C41.2658 14.8597 39.5396 14.8597 37.7566 14.8597Z" fill="#ECA308"/>
<path d="M44.5105 14.8596C44.5105 14.2699 44.5105 13.7095 44.5105 13.1001H46.3386C46.3386 11.2917 46.3386 9.53219 46.3386 7.73743C46.9851 7.73743 47.5592 7.73743 48.1706 7.73743C48.1706 10.12 48.1706 12.481 48.1706 14.8596H44.5105Z" fill="#ECA308"/>
<path d="M46.3894 7.04579C46.3894 6.44231 46.3894 5.89566 46.3894 5.30981C46.989 5.30981 47.5533 5.30981 48.1607 5.30981C48.1607 5.89566 48.1607 6.46191 48.1607 7.04579H46.3894Z" fill="#ECA308"/>
<path d="M25.1716 14.8597C25.1716 13.5371 25.1716 12.242 25.1716 10.9037C25.7575 10.9037 26.3296 10.9037 26.9625 10.9037C26.9625 11.6267 26.9625 12.3301 26.9625 13.059C27.5444 13.059 28.0656 13.059 28.6397 13.059C28.6397 8.70536 28.6397 4.36934 28.6397 0C29.2569 0 29.8231 0 30.4266 0C30.4266 4.95714 30.4266 9.89272 30.4266 14.8597C28.6808 14.8597 26.9546 14.8597 25.1716 14.8597Z" fill="#ECA308"/>
<path d="M31.9236 14.8596C31.9236 14.2699 31.9236 13.7095 31.9236 13.1001C32.5231 13.1001 33.1011 13.1001 33.7517 13.1001C33.7517 11.2917 33.7517 9.53219 33.7517 7.73743C34.3982 7.73743 34.9723 7.73743 35.5836 7.73743C35.5836 10.12 35.5836 12.481 35.5836 14.8596C34.3493 14.8596 33.1521 14.8596 31.9236 14.8596Z" fill="#ECA308"/>
<path d="M33.8044 7.04579C33.8044 6.44231 33.8044 5.89566 33.8044 5.30981H35.5757C35.5757 5.89566 35.5757 6.46191 35.5757 7.04579C34.9761 7.04579 34.4197 7.04579 33.8044 7.04579Z" fill="#ECA308"/>
<path d="M12.585 14.8597C12.585 13.5371 12.585 12.242 12.585 10.9037H14.3758C14.3758 11.6267 14.3758 12.3301 14.3758 13.059H16.053C16.053 8.70536 16.053 4.36934 16.053 0C16.6702 0 17.2364 0 17.8399 0C17.8399 4.95714 17.8399 9.89272 17.8399 14.8597C16.0941 14.8597 14.368 14.8597 12.585 14.8597Z" fill="#ECA308"/>
<path d="M19.3389 14.8596C19.3389 14.2699 19.3389 13.7095 19.3389 13.1001C19.9384 13.1001 20.5164 13.1001 21.1669 13.1001C21.1669 11.2917 21.1669 9.53219 21.1669 7.73743C21.8135 7.73743 22.3876 7.73743 22.9989 7.73743C22.9989 10.12 22.9989 12.481 22.9989 14.8596C21.7645 14.8596 20.5674 14.8596 19.3389 14.8596Z" fill="#ECA308"/>
<path d="M21.2197 7.04579C21.2197 6.44231 21.2197 5.89566 21.2197 5.30981H22.991C22.991 5.89566 22.991 6.46191 22.991 7.04579C22.3914 7.04579 21.835 7.04579 21.2197 7.04579Z" fill="#ECA308"/>
<path d="M0 14.8597C0 13.5371 0 12.242 0 10.9037H1.79084C1.79084 11.6267 1.79084 12.3301 1.79084 13.059H3.46804C3.46804 8.70536 3.46804 4.36934 3.46804 0H5.25496C5.25496 4.95714 5.25496 9.89272 5.25496 14.8597C3.50918 14.8597 1.783 14.8597 0 14.8597Z" fill="#ECA308"/>
<path d="M6.75391 14.8596C6.75391 14.2699 6.75391 13.7095 6.75391 13.1001H8.58197C8.58197 11.2917 8.58197 9.53219 8.58197 7.73743C9.22856 7.73743 9.80264 7.73743 10.414 7.73743C10.414 10.12 10.414 12.481 10.414 14.8596C9.17957 14.8596 7.98241 14.8596 6.75391 14.8596Z" fill="#ECA308"/>
<path d="M8.63477 7.04579C8.63477 6.44231 8.63477 5.89566 8.63477 5.30981C9.23432 5.30981 9.79862 5.30981 10.406 5.30981C10.406 5.89566 10.406 6.46191 10.406 7.04579C9.80645 7.04579 9.25 7.04579 8.63477 7.04579Z" fill="#ECA308"/>
<path d="M110.003 119.177V105.63H123.664V119.177H110.003Z" fill="#ECA308"/>
</svg>
